<?xml version="1.0" encoding="UTF-8"?>
<svg xmlns="http://www.w3.org/2000/svg" xmlns:xlink="http://www.w3.org/1999/xlink" viewBox="0 0 64 64" width="64px" height="64px">
<g id="surface1721261">
<path style=" stroke:none;fill-rule:nonzero;fill:rgb(23.529412%,85.09804%,85.09804%);fill-opacity:1;" d="M 8.535156 5.121094 C 6.664062 5.121094 5.121094 6.664062 5.121094 8.535156 L 5.121094 55.464844 C 5.121094 57.335938 6.664062 58.878906 8.535156 58.878906 L 55.464844 58.878906 C 57.335938 58.878906 58.878906 57.339844 58.878906 55.464844 L 58.878906 8.535156 C 58.878906 6.664062 57.339844 5.121094 55.464844 5.121094 Z M 8.535156 7.679688 L 55.464844 7.679688 C 55.941406 7.679688 56.320312 8.058594 56.320312 8.535156 L 56.320312 55.464844 C 56.320312 55.941406 55.941406 56.320312 55.464844 56.320312 L 8.535156 56.320312 C 8.058594 56.320312 7.679688 55.941406 7.679688 55.464844 L 7.679688 8.535156 C 7.679688 8.058594 8.058594 7.679688 8.535156 7.679688 Z M 29.441406 29.441406 L 29.441406 45.535156 C 29.441406 48.003906 28.503906 48.640625 26.878906 48.640625 C 25.179688 48.640625 24 47.578125 23.21875 46.203125 L 19.199219 48.640625 C 20.363281 51.105469 23.21875 53.761719 27.179688 53.761719 C 31.558594 53.761719 34.558594 51.429688 34.558594 46.316406 L 34.558594 29.441406 Z M 45.378906 29.441406 C 41.019531 29.441406 38.226562 32.230469 38.226562 35.894531 C 38.226562 39.871094 40.570312 41.75 44.09375 43.25 L 45.316406 43.773438 C 47.539062 44.75 48.640625 45.34375 48.640625 47.019531 C 48.640625 48.414062 47.578125 49.425781 45.554688 49.425781 C 43.144531 49.425781 42.003906 47.789062 40.960938 46.078125 L 37.121094 48.640625 C 38.554688 51.476562 41.128906 53.761719 45.664062 53.761719 C 50.304688 53.761719 53.761719 51.351562 53.761719 46.953125 C 53.761719 42.875 51.421875 41.058594 47.265625 39.28125 L 46.046875 38.761719 C 43.949219 37.851562 43.039062 37.261719 43.039062 35.796875 C 43.039062 34.609375 43.949219 33.699219 45.378906 33.699219 C 46.785156 33.699219 47.683594 34.296875 48.519531 35.796875 L 52.324219 33.355469 C 50.71875 30.519531 48.484375 29.441406 45.378906 29.441406 Z M 45.378906 29.441406 "/>
</g>
</svg>
