<?xml version="1.0" encoding="UTF-8"?>
<svg xmlns="http://www.w3.org/2000/svg" xmlns:xlink="http://www.w3.org/1999/xlink" viewBox="0 0 64 64" width="64px" height="64px">
<g id="surface1755456">
<path style=" stroke:none;fill-rule:nonzero;fill:rgb(1.960784%,57.254905%,91.37255%);fill-opacity:1;" d="M 56 23.066406 C 56 50.398438 32 58.667969 32 58.667969 C 32 58.667969 8 50.398438 8 23.066406 C 8 19.734375 8.265625 16.933594 8.535156 14.667969 C 8.933594 11.332031 11.199219 8.667969 14.398438 7.867188 C 18.535156 6.667969 25.066406 5.332031 32 5.332031 C 38.933594 5.332031 45.464844 6.667969 49.734375 7.867188 C 52.933594 8.667969 55.199219 11.464844 55.601562 14.667969 C 55.734375 16.933594 56 19.867188 56 23.066406 Z M 56 23.066406 "/>
<path style=" stroke:none;fill-rule:nonzero;fill:rgb(23.529412%,85.09804%,85.09804%);fill-opacity:1;" d="M 32 9.332031 C 38.535156 9.332031 44.667969 10.667969 48.667969 11.734375 C 50.265625 12.132812 51.332031 13.464844 51.601562 15.199219 C 51.867188 17.734375 52 20.398438 52 23.066406 C 52 43.867188 36.667969 52.265625 32 54.265625 C 27.332031 52.132812 12 43.734375 12 23.066406 C 12 20.398438 12.132812 17.734375 12.398438 15.199219 C 12.535156 13.464844 13.734375 12.132812 15.332031 11.734375 C 19.332031 10.667969 25.464844 9.332031 32 9.332031 M 32 5.332031 C 25.066406 5.332031 18.535156 6.667969 14.265625 7.867188 C 11.199219 8.667969 8.800781 11.464844 8.535156 14.667969 C 8.265625 16.933594 8 19.867188 8 23.066406 C 8 50.398438 32 58.667969 32 58.667969 C 32 58.667969 56 50.398438 56 23.066406 C 56 19.734375 55.734375 16.933594 55.464844 14.667969 C 55.066406 11.332031 52.800781 8.667969 49.601562 7.867188 C 45.464844 6.667969 38.933594 5.332031 32 5.332031 Z M 32 5.332031 "/>
<path style=" stroke:none;fill-rule:nonzero;fill:rgb(86.274511%,92.941177%,78.431374%);fill-opacity:1;" d="M 30.667969 37.332031 L 33.332031 37.332031 L 33.332031 48 L 30.667969 48 Z M 30.667969 37.332031 "/>
<path style=" stroke:none;fill-rule:nonzero;fill:rgb(23.529412%,85.09804%,85.09804%);fill-opacity:1;" d="M 32 13.332031 C 32 13.332031 24 20 24 30.667969 C 24 37.601562 28.398438 42 30.667969 44 L 32 40 L 33.332031 44 C 35.601562 42 40 37.601562 40 30.667969 C 40 20 32 13.332031 32 13.332031 Z M 32 13.332031 "/>
<path style=" stroke:none;fill-rule:nonzero;fill:rgb(50.588238%,78.039217%,51.764709%);fill-opacity:1;" d="M 32 13.332031 C 32 13.332031 24 20 24 30.667969 C 24 37.601562 28.398438 42 30.667969 44 L 32 40 Z M 32 13.332031 "/>
</g>
</svg>
