<?xml version="1.0" encoding="utf-8"?>
<svg width="107" height="65" xmlns="http://www.w3.org/2000/svg" xmlns:bx="https://boxy-svg.com">
  <path d="M 25.173 16.793 L 45.294 16.793 L 45.294 18.393 L 27.017 18.393 L 27.017 30.434 L 44.205 30.434 L 44.205 32.034 L 27.017 32.034 L 27.017 45.255 L 45.504 45.255 L 45.504 46.854 L 25.173 46.854 L 25.173 16.793 Z M 47.097 16.793 L 49.235 16.793 L 58.709 30.013 L 68.392 16.793 L 81.563 0 L 59.925 31.403 L 71.075 46.854 L 68.853 46.854 L 58.709 32.792 L 48.522 46.854 L 46.342 46.854 L 57.577 31.402 L 47.097 16.793 Z M 71.872 18.393 L 71.872 16.793 L 94.802 16.793 L 94.802 18.393 L 84.238 18.393 L 84.238 46.854 L 82.394 46.854 L 82.394 18.393 L 71.872 18.393 Z M 0 16.793 L 2.306 16.793 L 34.098 64.386 L 20.96 46.854 L 1.928 19.066 L 1.845 46.854 L 0 46.854 L 0 16.793 Z M 94.616 44.771 C 94.239 44.771 93.957 44.479 93.957 44.102 C 93.957 43.724 94.239 43.432 94.616 43.432 C 94.998 43.432 95.276 43.724 95.276 44.102 C 95.276 44.479 94.998 44.771 94.616 44.771 Z M 96.428 43.01 L 97.416 43.01 C 97.429 43.544 97.82 43.904 98.394 43.904 C 99.035 43.904 99.398 43.517 99.398 42.794 L 99.398 38.21 L 100.404 38.21 L 100.404 42.799 C 100.404 44.102 99.65 44.853 98.402 44.853 C 97.231 44.853 96.428 44.124 96.428 43.01 Z M 101.718 42.952 L 102.714 42.952 C 102.799 43.567 103.4 43.958 104.266 43.958 C 105.073 43.958 105.666 43.54 105.666 42.965 C 105.666 42.47 105.289 42.174 104.432 41.972 L 103.598 41.77 C 102.426 41.495 101.893 40.929 101.893 39.977 C 101.893 38.822 102.835 38.053 104.248 38.053 C 105.562 38.053 106.522 38.822 106.581 39.914 L 105.603 39.914 C 105.509 39.316 104.988 38.943 104.235 38.943 C 103.441 38.943 102.911 39.325 102.911 39.909 C 102.911 40.372 103.252 40.637 104.096 40.834 L 104.809 41.01 C 106.137 41.32 106.684 41.86 106.684 42.835 C 106.684 44.075 105.724 44.853 104.19 44.853 C 102.754 44.853 101.789 44.111 101.718 42.951 Z" style="paint-order: fill; fill: rgb(60, 217, 217);" bx:origin="0.487421 0.5"/>
</svg>