<?xml version="1.0" encoding="UTF-8"?>
<svg xmlns="http://www.w3.org/2000/svg" xmlns:xlink="http://www.w3.org/1999/xlink" viewBox="0 0 64 64" width="64px" height="64px">
<g id="surface1761877">
<path style=" stroke:none;fill-rule:nonzero;fill:rgb(27.058825%,57.254905%,62.352943%);fill-opacity:1;" d="M 22.9375 25.496094 L 16.394531 29.117188 C 16.152344 29.25 16 29.5 16 29.773438 L 16 37.015625 C 16 37.285156 16.152344 37.535156 16.394531 37.671875 L 22.941406 41.292969 C 23.183594 41.429688 23.488281 41.429688 23.730469 41.292969 L 30.273438 37.671875 C 30.515625 37.535156 30.667969 37.285156 30.667969 37.015625 L 30.667969 29.773438 C 30.667969 29.5 30.515625 29.253906 30.269531 29.117188 L 23.730469 25.496094 C 23.605469 25.429688 23.46875 25.394531 23.332031 25.394531 C 23.195312 25.394531 23.058594 25.429688 22.9375 25.496094 M 56.601562 32.015625 L 55.511719 32.621094 C 55.46875 32.644531 55.445312 32.683594 55.445312 32.730469 L 55.445312 33.9375 C 55.445312 33.984375 55.46875 34.023438 55.511719 34.046875 L 56.601562 34.652344 C 56.644531 34.671875 56.691406 34.671875 56.734375 34.652344 L 57.824219 34.046875 C 57.863281 34.023438 57.890625 33.984375 57.890625 33.9375 L 57.890625 32.730469 C 57.890625 32.683594 57.863281 32.644531 57.824219 32.621094 L 56.730469 32.015625 C 56.710938 32.003906 56.6875 32 56.667969 32 C 56.644531 32 56.621094 32.003906 56.601562 32.015625 "/>
<path style=" stroke:none;fill-rule:nonzero;fill:rgb(23.529412%,85.09804%,85.09804%);fill-opacity:1;" d="M 47.667969 17.820312 L 44.484375 16.042969 C 44.382812 15.984375 44.261719 15.988281 44.160156 16.046875 C 44.0625 16.105469 44 16.210938 44 16.324219 L 44 27.058594 L 41.0625 25.433594 C 40.941406 25.367188 40.800781 25.332031 40.667969 25.332031 C 40.53125 25.332031 40.394531 25.367188 40.269531 25.433594 L 40.273438 25.433594 L 33.730469 29.054688 C 33.484375 29.1875 33.332031 29.441406 33.332031 29.710938 L 33.332031 36.953125 C 33.332031 37.222656 33.484375 37.472656 33.730469 37.609375 L 40.273438 41.230469 C 40.515625 41.367188 40.820312 41.367188 41.0625 41.230469 L 47.605469 37.609375 C 47.847656 37.476562 48 37.222656 48 36.953125 L 48 18.382812 C 48 18.148438 47.871094 17.933594 47.667969 17.820312 Z M 43.820312 35.277344 L 40.847656 36.925781 C 40.738281 36.984375 40.601562 36.984375 40.488281 36.925781 L 37.515625 35.277344 C 37.402344 35.214844 37.332031 35.101562 37.332031 34.980469 L 37.332031 31.683594 C 37.332031 31.5625 37.402344 31.449219 37.511719 31.386719 L 40.488281 29.742188 C 40.542969 29.710938 40.605469 29.695312 40.667969 29.695312 C 40.730469 29.695312 40.789062 29.710938 40.847656 29.742188 L 43.820312 31.386719 C 43.933594 31.449219 44 31.5625 44 31.6875 L 44 34.980469 C 44 35.101562 43.933594 35.214844 43.820312 35.277344 Z M 43.820312 35.277344 "/>
<path style=" stroke:none;fill-rule:nonzero;fill:rgb(30.980393%,71.764708%,73.725492%);fill-opacity:1;" d="M 22.9375 25.496094 L 16 37.015625 C 16 37.285156 16.152344 37.535156 16.394531 37.671875 L 22.941406 41.292969 C 23.183594 41.429688 23.488281 41.429688 23.730469 41.292969 L 30.667969 29.773438 C 30.667969 29.5 30.515625 29.253906 30.269531 29.117188 L 23.730469 25.496094 C 23.605469 25.429688 23.46875 25.394531 23.332031 25.394531 C 23.195312 25.394531 23.058594 25.429688 22.9375 25.496094 "/>
<path style=" stroke:none;fill-rule:nonzero;fill:rgb(23.529412%,85.09804%,85.09804%);fill-opacity:1;" d="M 22.9375 25.496094 L 16.394531 29.117188 C 16.152344 29.25 16 29.5 16 29.773438 L 22.9375 41.292969 C 23.183594 41.429688 23.484375 41.429688 23.730469 41.292969 L 30.273438 37.671875 C 30.515625 37.535156 30.667969 37.285156 30.667969 37.015625 L 23.730469 25.496094 C 23.605469 25.429688 23.46875 25.394531 23.332031 25.394531 C 23.195312 25.394531 23.058594 25.429688 22.9375 25.496094 "/>
<path style=" stroke:none;fill-rule:nonzero;fill:rgb(23.529412%,85.09804%,85.09804%);fill-opacity:1;" d="M 63.605469 29.054688 L 57.0625 25.433594 C 56.941406 25.367188 56.800781 25.332031 56.667969 25.332031 C 56.53125 25.332031 56.394531 25.367188 56.269531 25.433594 L 56.273438 25.433594 L 49.730469 29.054688 C 49.484375 29.1875 49.332031 29.445312 49.332031 29.726562 L 49.332031 36.941406 C 49.332031 37.21875 49.484375 37.476562 49.730469 37.609375 L 56.273438 41.234375 C 56.519531 41.371094 56.820312 41.371094 57.0625 41.234375 L 60.082031 39.5625 C 60.355469 39.410156 60.355469 39.011719 60.078125 38.863281 L 53.511719 35.277344 C 53.402344 35.214844 53.332031 35.101562 53.332031 34.976562 L 53.332031 31.6875 C 53.332031 31.5625 53.398438 31.449219 53.507812 31.390625 L 56.488281 29.742188 L 56.484375 29.742188 C 56.542969 29.714844 56.601562 29.699219 56.664062 29.699219 C 56.726562 29.699219 56.789062 29.714844 56.84375 29.742188 L 59.824219 31.394531 C 59.933594 31.453125 60 31.566406 60 31.6875 L 60 34.371094 C 60 34.484375 60.058594 34.59375 60.160156 34.648438 C 60.261719 34.707031 60.382812 34.707031 60.484375 34.648438 L 63.679688 32.789062 C 63.878906 32.675781 64 32.464844 64 32.234375 L 64 29.726562 C 64 29.445312 63.847656 29.1875 63.605469 29.054688 Z M 14.269531 29.054688 L 7.730469 25.433594 C 7.605469 25.367188 7.46875 25.332031 7.332031 25.332031 C 7.199219 25.332031 7.058594 25.367188 6.9375 25.433594 L 0.394531 29.054688 C 0.152344 29.1875 0 29.445312 0 29.726562 L 0 39.679688 C 0 39.792969 0.0625 39.898438 0.160156 39.957031 C 0.261719 40.011719 0.382812 40.011719 0.484375 39.957031 L 3.679688 38.097656 C 3.878906 37.984375 4 37.773438 4 37.542969 L 4 31.683594 C 4 31.5625 4.066406 31.449219 4.171875 31.390625 L 7.152344 29.742188 C 7.210938 29.710938 7.269531 29.699219 7.332031 29.699219 C 7.394531 29.699219 7.457031 29.714844 7.511719 29.742188 L 10.492188 31.390625 C 10.601562 31.449219 10.667969 31.5625 10.667969 31.6875 L 10.667969 37.542969 C 10.667969 37.773438 10.789062 37.984375 10.988281 38.101562 L 14.183594 39.957031 C 14.285156 40.015625 14.40625 40.015625 14.507812 39.957031 C 14.605469 39.898438 14.667969 39.792969 14.667969 39.679688 L 14.667969 29.726562 C 14.667969 29.445312 14.515625 29.1875 14.269531 29.054688 Z M 14.269531 29.054688 "/>
</g>
</svg>
