<?xml version="1.0" encoding="UTF-8"?>
<svg xmlns="http://www.w3.org/2000/svg" xmlns:xlink="http://www.w3.org/1999/xlink" viewBox="0 0 64 64" width="64px" height="64px">
<g id="surface6785552">
<path style=" stroke:none;fill-rule:nonzero;fill:rgb(23.529412%,85.09804%,85.09804%);fill-opacity:1;" d="M 50.257812 1.300781 C 50.003906 1.34375 49.769531 1.480469 49.609375 1.707031 L 48.453125 3.339844 C 48.132812 3.789062 48.238281 4.414062 48.6875 4.734375 C 48.863281 4.859375 49.066406 4.917969 49.265625 4.917969 C 49.578125 4.917969 49.886719 4.773438 50.082031 4.496094 L 51.242188 2.867188 C 51.558594 2.417969 51.457031 1.792969 51.007812 1.472656 C 50.78125 1.3125 50.511719 1.257812 50.257812 1.300781 Z M 20.574219 5.175781 C 19.289062 5.136719 18.074219 5.398438 17 6.015625 C 15.28125 7.007812 14.179688 8.78125 13.625 10.945312 C 13.070312 13.109375 13.023438 15.707031 13.40625 18.613281 C 13.53125 19.566406 13.722656 20.5625 13.9375 21.574219 C 12.953125 21.890625 11.996094 22.222656 11.109375 22.589844 C 8.40625 23.710938 6.175781 25.050781 4.582031 26.613281 C 2.984375 28.175781 2 30.015625 2 32 C 2 33.984375 2.984375 35.824219 4.582031 37.386719 C 6.175781 38.949219 8.40625 40.289062 11.109375 41.410156 C 11.996094 41.777344 12.953125 42.109375 13.9375 42.425781 C 13.722656 43.4375 13.53125 44.433594 13.40625 45.386719 C 13.023438 48.289062 13.070312 50.886719 13.625 53.050781 C 14.179688 55.21875 15.28125 56.988281 17 57.980469 C 18.71875 58.972656 20.800781 59.042969 22.953125 58.4375 C 25.109375 57.835938 27.382812 56.578125 29.707031 54.792969 C 30.464844 54.210938 31.230469 53.546875 32 52.851562 C 32.765625 53.546875 33.535156 54.210938 34.292969 54.792969 C 36.617188 56.578125 38.890625 57.835938 41.046875 58.4375 C 43.199219 59.042969 45.28125 58.972656 47 57.980469 C 48.71875 56.988281 49.820312 55.21875 50.375 53.050781 C 50.929688 50.886719 50.976562 48.289062 50.59375 45.386719 C 50.46875 44.433594 50.277344 43.4375 50.0625 42.429688 C 51.046875 42.109375 52.003906 41.777344 52.890625 41.410156 C 55.59375 40.289062 57.824219 38.949219 59.417969 37.386719 C 61.015625 35.824219 62 33.984375 62 32 C 62 30.015625 61.015625 28.175781 59.417969 26.613281 C 57.824219 25.050781 55.59375 23.710938 52.890625 22.589844 C 52.003906 22.222656 51.046875 21.890625 50.0625 21.570312 C 50.277344 20.5625 50.46875 19.566406 50.59375 18.613281 C 50.976562 15.710938 50.929688 13.113281 50.375 10.949219 C 49.820312 8.78125 48.71875 7.011719 47 6.019531 C 45.28125 5.027344 43.199219 4.957031 41.046875 5.5625 C 38.890625 6.164062 36.617188 7.421875 34.296875 9.207031 C 33.535156 9.789062 32.765625 10.453125 32 11.148438 C 31.230469 10.453125 30.464844 9.789062 29.707031 9.203125 C 27.382812 7.417969 25.109375 6.160156 22.957031 5.558594 C 22.148438 5.332031 21.347656 5.203125 20.578125 5.175781 Z M 53.902344 5.410156 C 53.773438 5.421875 53.644531 5.457031 53.523438 5.519531 L 51.75 6.449219 C 51.261719 6.707031 51.070312 7.3125 51.328125 7.800781 C 51.507812 8.144531 51.855469 8.335938 52.214844 8.335938 C 52.371094 8.335938 52.53125 8.300781 52.679688 8.222656 L 54.449219 7.292969 C 54.9375 7.035156 55.128906 6.429688 54.871094 5.941406 C 54.679688 5.574219 54.289062 5.378906 53.902344 5.410156 Z M 20.53125 7.171875 C 21.109375 7.191406 21.742188 7.296875 22.417969 7.484375 C 24.21875 7.992188 26.304688 9.117188 28.484375 10.789062 C 29.160156 11.3125 29.851562 11.902344 30.542969 12.519531 C 28.5625 14.484375 26.601562 16.800781 24.71875 19.386719 C 21.535156 19.722656 18.550781 20.265625 15.863281 20.996094 C 15.667969 20.089844 15.503906 19.199219 15.390625 18.351562 C 15.03125 15.625 15.097656 13.253906 15.5625 11.441406 C 16.027344 9.632812 16.847656 8.414062 18 7.75 C 18.71875 7.335938 19.558594 7.136719 20.53125 7.171875 Z M 43.46875 7.171875 C 44.4375 7.140625 45.28125 7.335938 46 7.75 C 47.152344 8.417969 47.972656 9.632812 48.4375 11.441406 C 48.902344 13.253906 48.96875 15.628906 48.609375 18.351562 C 48.496094 19.199219 48.332031 20.089844 48.136719 20.996094 C 45.449219 20.265625 42.464844 19.722656 39.28125 19.386719 C 37.398438 16.800781 35.4375 14.488281 33.457031 12.523438 C 34.148438 11.902344 34.835938 11.3125 35.511719 10.792969 C 37.695312 9.117188 39.78125 7.992188 41.582031 7.484375 C 42.257812 7.296875 42.886719 7.195312 43.46875 7.171875 Z M 55.421875 10.511719 L 53.445312 10.808594 C 52.898438 10.886719 52.523438 11.398438 52.605469 11.945312 C 52.679688 12.441406 53.105469 12.796875 53.59375 12.796875 C 53.640625 12.796875 53.6875 12.792969 53.742188 12.785156 L 55.71875 12.488281 C 56.265625 12.40625 56.640625 11.898438 56.5625 11.351562 C 56.480469 10.804688 55.96875 10.4375 55.421875 10.511719 Z M 32 13.894531 C 33.546875 15.429688 35.101562 17.199219 36.617188 19.164062 C 35.109375 19.066406 33.574219 19 32 19 C 30.425781 19 28.890625 19.066406 27.378906 19.164062 C 28.894531 17.199219 30.449219 15.433594 32 13.894531 Z M 53.832031 15.605469 C 53.28125 15.574219 52.804688 15.992188 52.773438 16.546875 C 52.742188 17.097656 53.164062 17.570312 53.714844 17.601562 L 55.710938 17.714844 C 55.734375 17.71875 55.75 17.71875 55.769531 17.71875 C 56.296875 17.71875 56.738281 17.304688 56.765625 16.773438 C 56.800781 16.222656 56.378906 15.75 55.828125 15.722656 Z M 32 21 C 34.128906 21 36.191406 21.105469 38.1875 21.289062 C 39.339844 22.921875 40.460938 24.660156 41.527344 26.5 C 42.589844 28.34375 43.53125 30.183594 44.371094 32 C 43.53125 33.816406 42.589844 35.65625 41.527344 37.5 C 40.460938 39.339844 39.339844 41.078125 38.1875 42.710938 C 36.191406 42.894531 34.128906 43 32 43 C 29.871094 43 27.808594 42.894531 25.8125 42.710938 C 24.660156 41.078125 23.535156 39.34375 22.472656 37.5 C 21.410156 35.65625 20.46875 33.816406 19.628906 31.996094 C 20.464844 30.183594 21.410156 28.339844 22.472656 26.5 C 23.535156 24.65625 24.660156 22.921875 25.8125 21.289062 C 27.808594 21.105469 29.871094 21 32 21 Z M 23.191406 21.582031 C 22.351562 22.839844 21.527344 24.136719 20.742188 25.5 C 19.953125 26.863281 19.242188 28.226562 18.574219 29.582031 C 17.628906 27.285156 16.878906 25.058594 16.324219 22.949219 C 18.425781 22.375 20.734375 21.910156 23.191406 21.582031 Z M 40.804688 21.582031 C 43.265625 21.910156 45.574219 22.375 47.675781 22.949219 C 47.121094 25.058594 46.371094 27.289062 45.425781 29.585938 C 44.757812 28.226562 44.046875 26.863281 43.257812 25.5 C 42.46875 24.136719 41.644531 22.839844 40.804688 21.582031 Z M 14.402344 23.527344 C 15.113281 26.222656 16.136719 29.078125 17.4375 32 C 16.136719 34.921875 15.113281 37.777344 14.402344 40.472656 C 13.519531 40.1875 12.664062 39.886719 11.875 39.5625 C 9.335938 38.507812 7.316406 37.265625 5.976562 35.957031 C 4.640625 34.648438 4 33.332031 4 32 C 4 30.667969 4.640625 29.351562 5.976562 28.042969 C 7.316406 26.734375 9.335938 25.492188 11.875 24.4375 C 12.664062 24.113281 13.519531 23.8125 14.402344 23.527344 Z M 49.59375 23.527344 C 50.480469 23.8125 51.335938 24.113281 52.125 24.4375 C 54.664062 25.492188 56.683594 26.734375 58.023438 28.042969 C 59.359375 29.351562 60 30.667969 60 32 C 60 33.332031 59.359375 34.648438 58.023438 35.957031 C 56.683594 37.265625 54.664062 38.507812 52.125 39.5625 C 51.335938 39.886719 50.480469 40.1875 49.597656 40.472656 C 48.886719 37.777344 47.863281 34.921875 46.5625 32 C 47.863281 29.078125 48.882812 26.21875 49.59375 23.527344 Z M 32 25 C 28.144531 25 25 28.144531 25 32 C 25 35.855469 28.144531 39 32 39 C 35.855469 39 39 35.855469 39 32 C 39 28.144531 35.855469 25 32 25 Z M 32 27 C 34.773438 27 37 29.226562 37 32 C 37 34.773438 34.773438 37 32 37 C 29.226562 37 27 34.773438 27 32 C 27 29.226562 29.226562 27 32 27 Z M 45.425781 34.414062 C 46.371094 36.710938 47.121094 38.941406 47.675781 41.050781 C 45.574219 41.625 43.265625 42.089844 40.804688 42.417969 C 41.644531 41.160156 42.46875 39.863281 43.257812 38.5 C 44.046875 37.136719 44.757812 35.773438 45.425781 34.414062 Z M 18.574219 34.417969 C 19.242188 35.773438 19.953125 37.136719 20.742188 38.5 C 21.527344 39.863281 22.351562 41.160156 23.191406 42.417969 C 20.734375 42.089844 18.425781 41.625 16.324219 41.050781 C 16.878906 38.941406 17.628906 36.714844 18.574219 34.417969 Z M 15.863281 43.003906 C 18.550781 43.734375 21.535156 44.277344 24.71875 44.613281 C 26.601562 47.199219 28.5625 49.515625 30.542969 51.480469 C 29.851562 52.097656 29.160156 52.6875 28.484375 53.207031 C 26.304688 54.882812 24.21875 56.007812 22.417969 56.515625 C 20.613281 57.019531 19.152344 56.914062 18 56.25 C 16.847656 55.585938 16.023438 54.367188 15.5625 52.558594 C 15.097656 50.746094 15.03125 48.371094 15.390625 45.648438 C 15.503906 44.800781 15.667969 43.910156 15.863281 43.003906 Z M 48.136719 43.003906 C 48.332031 43.910156 48.496094 44.800781 48.609375 45.648438 C 48.96875 48.371094 48.902344 50.746094 48.4375 52.558594 C 47.972656 54.367188 47.152344 55.582031 46 56.25 C 44.847656 56.914062 43.386719 57.019531 41.585938 56.515625 C 39.78125 56.007812 37.695312 54.882812 35.515625 53.207031 C 34.835938 52.6875 34.148438 52.097656 33.460938 51.476562 C 35.4375 49.511719 37.398438 47.199219 39.28125 44.609375 C 42.464844 44.277344 45.449219 43.734375 48.140625 43 Z M 8.609375 43.714844 C 8.058594 43.644531 7.558594 44.027344 7.488281 44.574219 C 7.414062 45.125 7.800781 45.625 8.347656 45.699219 L 10.328125 45.964844 C 10.375 45.96875 10.417969 45.972656 10.460938 45.972656 C 10.957031 45.972656 11.386719 45.605469 11.453125 45.105469 C 11.527344 44.554688 11.140625 44.054688 10.59375 43.980469 Z M 27.378906 44.835938 C 28.890625 44.933594 30.425781 45 32 45 C 33.574219 45 35.109375 44.933594 36.617188 44.835938 C 35.101562 46.800781 33.546875 48.570312 32 50.105469 C 30.453125 48.566406 28.894531 46.800781 27.378906 44.835938 Z M 10.160156 48.816406 L 8.164062 48.886719 C 7.609375 48.90625 7.175781 49.367188 7.195312 49.917969 C 7.214844 50.457031 7.65625 50.886719 8.191406 50.886719 C 8.207031 50.886719 8.21875 50.886719 8.226562 50.886719 L 10.226562 50.816406 C 10.78125 50.796875 11.210938 50.335938 11.191406 49.785156 C 11.175781 49.230469 10.710938 48.78125 10.160156 48.816406 Z M 11.027344 53.511719 C 10.894531 53.5 10.761719 53.511719 10.632812 53.550781 L 8.71875 54.136719 C 8.1875 54.296875 7.890625 54.855469 8.054688 55.386719 C 8.183594 55.816406 8.582031 56.09375 9.011719 56.09375 C 9.105469 56.09375 9.203125 56.078125 9.300781 56.046875 L 11.214844 55.464844 C 11.742188 55.304688 12.039062 54.746094 11.878906 54.214844 C 11.757812 53.820312 11.414062 53.550781 11.027344 53.511719 Z M 13.144531 57.550781 C 12.890625 57.535156 12.628906 57.609375 12.417969 57.789062 L 10.902344 59.09375 C 10.480469 59.453125 10.433594 60.085938 10.792969 60.503906 C 10.992188 60.734375 11.273438 60.851562 11.550781 60.851562 C 11.785156 60.851562 12.015625 60.769531 12.203125 60.609375 L 13.722656 59.304688 C 14.140625 58.949219 14.1875 58.316406 13.828125 57.894531 C 13.648438 57.6875 13.398438 57.570312 13.144531 57.550781 Z M 13.144531 57.550781 "/>
</g>
</svg>
