<svg version="1" xmlns="http://www.w3.org/2000/svg" width="346.667" height="346.667" viewBox="0 0 260.000000 260.000000"><path d="M1.9 73.6c-1.8 2.1 0 4.8 3.5 5.2l2.6.3v33.8l-2.6.3c-3.5.4-5.3 3.1-3.5 5.2 1.2 1.4 4.4 1.6 22.7 1.6H46v-7.8c0-8.3-.9-10.2-4.5-10.2-2.6 0-4.3 3.3-3.9 7.7l.2 3.3H16.4l.1-6.3v-6.2l3.8-.3c2-.2 3.6 0 3.5.5-.1.4.1 1.8.6 3 .9 2.8 6 3.2 7 .7 1.1-2.8.6-15-.6-16.2-2.8-2.8-7.6-.4-6.9 3.5.1.9-1.1 1.3-3.6 1.3h-3.9v-7l.1-7h19.2l.1 3.6C36 86.7 37.5 89 40 89c3.4 0 4.4-3.1 4.1-13.3L44 72H23.6c-17.4 0-20.5.2-21.7 1.6zM128.3 86.5c-5.1 2.3-5.3 2.3-5.3.5 0-1.8-.7-2-6.9-2-8.1 0-10.1.6-10.1 2.9 0 2.6 2.1 4.1 5.7 4.1h3.3v21h-4.4c-5.4 0-7.5 2.2-5.3 5.7.6 1 5.2 1.3 17.1 1.3 13.7 0 16.6-.3 17.7-1.6.9-1.1 1-2 .2-3.2-.8-1.3-2.9-1.8-9.2-2l-8.1-.3.2-6.8c.2-6.6.3-6.8 4.2-9.8 7-5.4 9-5.9 12.5-3.4 3.5 2.5 6.6 2.1 7.4-1 1-3.6-5.1-7.9-11.1-7.9-1.5 0-5.1 1.1-7.9 2.5zM165.6 86.1c-7.5 3.6-11.5 8.9-12 15.8-.3 4.2 2.2 10.3 5.4 13.3 3.4 3.2 10.3 5.5 16 5.5 11.8 0 21-7.3 21.5-17.2.3-6.5-4.8-14.2-11.5-17.2-5.3-2.5-14.7-2.5-19.4-.2zm16.5 7.2c6.8 4.5 7.7 10.8 2.5 16.4-3 3.4-4 3.8-8.7 3.9-6 .2-7.3-.2-11.2-4.2-9.4-9.4 6.1-23.7 17.4-16.1zM219.2 86.2c-2.3 1.4-3.2 1.6-3 .7.3-1.6-6.8-2.5-10.9-1.4-3.3.8-3.2 5.2.1 6.1 2.3.5 2.5 1.1 2.8 7.7.5 11.8.1 13.4-3.3 14.1-2.2.4-2.9 1.1-2.9 3 0 3.1 1.5 3.6 11 3.6 7.1 0 8-.2 9.1-2.2 1-1.8.8-2.4-.7-3.5-1-.7-2.5-1.3-3.4-1.3-2.6 0-2.2-14 .5-17.3 2.6-3.1 5.7-4.7 9.2-4.7 5.1.1 6.3 1.9 6.4 10.1.2 11.5.2 11.6-2.6 12.3-2.9.7-3.5 5-.9 6 3.2 1.2 15.1.6 16.3-.8 1.6-1.9-.2-5.6-2.7-5.6-1.5 0-1.7-1.3-1.8-9.9-.1-10.8-1.1-13.5-6-16.7-3.9-2.6-13.2-2.7-17.2-.2zM51.3 85.7c-.7.2-1.3 1.5-1.3 2.8 0 2.3 1.7 3.5 5 3.5 1.4 0 3.6 3.5 8.6 14l6.8 14h9.2l6.7-14c5.2-10.9 7.1-14 8.6-14 3.4 0 5.1-1.2 5.1-3.5 0-3-1.6-3.5-12-3.5-9 0-10.8.7-10.7 4.2 0 1.2 1.1 2 3.2 2.4l3.2.6-4.1 8.4c-2.2 4.6-4.3 8.4-4.6 8.4-.8 0-8.5-15.9-7.9-16.3.2-.2 1.6-.8 3.1-1.4 2.8-1.3 3.2-3.8.7-5.4-1.5-.9-17.5-1.1-19.6-.2zM156.5 152c0 5.5-.3 10-.6 10s-1.4-.9-2.4-2c-4-4.4-13.8-3.5-18.7 1.7-7.9 8.4-6.4 29.2 2.5 35.7 4.1 3 12.7 2.9 15.9-.2 3-2.7 3.8-2.8 3.3-.2-.3 1.7.2 2 3.1 2h3.4v-57h-6.6l.1 10zm-6.2 11.9c7.9 3 7.9 26.2 0 29.2-6.4 2.4-11.8-1-13-8.4-2.5-15.3 3.2-24.5 13-20.8zM185.3 158.8c-7.8 4-10.6 9.7-10.5 21.5 0 4.6.6 6.8 2.9 10.5 4.1 6.7 9.4 9.2 18.7 8.8 9.5-.4 12.6-2 12.6-6.1v-3.2l-5.2 1.8c-6.7 2.3-11 2.4-15.5.2-3.9-1.8-6.3-6.2-6.3-11.3v-3H211.3l-.6-5c-.6-4.6-2.4-8.7-5.4-11.8-3.9-4-14.3-5.3-20-2.4zm14.3 5.9c2 1.3 4.4 5.3 4.4 7.3 0 .6-4.7 1-11 1-6 0-11-.2-11-.5 0-1.9 3.5-6.7 5.8-8 3.2-1.7 8.8-1.7 11.8.2zM219 158.6c0 .3 3.2 9.3 7 20.1 3.9 10.8 7 19.7 7 19.9 0 1.1 9.1.2 9.5-.9.6-2 11.6-33.1 12.2-34.7 1.7-4.2 1.4-5-2-5h-3.3l-5.3 15.7c-3 8.7-5.7 16.4-6 17.1-.4.7-1.7-1.6-3-5.5-9.2-27.3-9.2-27.3-12.8-27.3-1.8 0-3.3.3-3.3.6zM94.3 191.5l-.2 7.5H107v-15H94.4l-.1 7.5z"/></svg>